<svg width="188" height="234" viewBox="0 0 188 234" fill="none" xmlns="http://www.w3.org/2000/svg">
<path d="M-1.52588e-05 88C7.87586 37.0763 19.6865 19.0229 52.5 3.5C61.4128 4.37681 63.4712 8.0489 64 18L48 80.5C43.0588 96.7225 44.4822 103.035 55 109L92.5 111.5C94.3377 117.409 88.065 139.389 77.5 177C78.726 180.995 80.3476 180.71 83.5 179.5L144 107C154.671 96.3004 155.915 90.5018 150 80.5C147.446 73.0461 130.507 72.4517 95.5 72.5C98.1912 57.5897 100.415 49.5013 105.5 35.5C109.532 11.3644 114.815 3.35279 130.5 0.5C173.656 23.2055 187.707 42.6074 188 93.5C179.292 138.298 160.933 161.103 112 199C88.379 214.54 74.4418 222.208 48 233.5C50.3942 224.099 50.4763 218.031 49.5 206.5C43.6494 185.743 37.5121 174.023 22.5 153C8.4564 132.917 3.43037 118.786 -1.52588e-05 88Z" fill="#1DF500"/>
</svg>
